# xmcd CD database file
#
# Track frame offsets:
#	150
#	19275
#	38272
#	56567
#	78085
#	99260
#	115457
#	137712
#	152640
#	175127
#	191695
#	207167
#	227615
#	245192
#	262182
#	281182
#	299735
#
# Disc length: 4261 seconds
#
# Revision: 0
# Processed by: cddbd v1.5PL3 Copyright (c) Steve Scherf et al.
# Submitted via: freeDB plugin v1.0
#
DISCID=f710a311
DTITLE=オムニバス - 80's ALIVE JAPAN 東芝EMI編 VOL.2
DYEAR=1900
DGENRE=Misc
TTITLE0=LIAR GIRL
TTITLE1=ラ・ヴィアンローズ
TTITLE2=限界LOVERS
TTITLE3=ドカドカうるさいR&Rバンド
TTITLE4=渚・モデラート
TTITLE5=鏡の中のアクトレス
TTITLE6=桃色吐息
TTITLE7=LAST GOOD-BYE
TTITLE8=さよなら
TTITLE9=心の旅
TTITLE10=君のひとみは10000ボルト
TTITLE11=Oneway Generation
TTITLE12=時代
TTITLE13=虹の都へ
TTITLE14=134号ストーリー
TTITLE15=出航 SASURAI
TTITLE16=カサブランカ・ダンディ
EXTD=
EXTT0=
EXTT1=
EXTT2=
EXTT3=
EXTT4=
EXTT5=
EXTT6=
EXTT7=
EXTT8=
EXTT9=
EXTT10=
EXTT11=
EXTT12=
EXTT13=
EXTT14=
EXTT15=
EXTT16=
PLAYORDER=
